<?xml version="1.0" encoding="UTF-8"?>
<svg data-bbox="0 0 48 48" viewBox="0 0 48 48" xmlns="http://www.w3.org/2000/svg" data-type="color">
    <g>
        <path fill="#f15b27" d="M48 0H0v48h48V0z" data-color="1"/>
        <path d="m37.69 32.11 2.72 2.71c.1.1.15.23.15.37v2.28c0 .29-.24.53-.53.53H10.69c-.14 0-.27-.06-.37-.15L7.6 35.14c-.1-.1-.15-.23-.15-.37v-2.28c0-.29.24-.53.53-.53h29.34c.14 0 .27.06.37.15Z" fill="#ffffff" data-color="2"/>
        <path d="m10.31 10.15-2.72 2.71c-.1.1-.15.23-.15.37v2.28c0 .29.24.53.53.53h29.34c.14 0 .27-.06.37-.15l2.72-2.71c.1-.1.15-.23.15-.37v-2.28c0-.29-.24-.53-.53-.53H10.68c-.14 0-.27.06-.37.15Z" fill="#ffffff" data-color="2"/>
        <path d="M29.65 20.75H7.96c-.29 0-.53.24-.53.53v4.99c0 .29.24.53.53.53h21.69c.14 0 .27-.06.37-.15l2.87-2.86-2.87-2.87c-.1-.1-.23-.15-.37-.15Z" fill="#ffffff" data-color="2"/>
    </g>
</svg>
